<svg width="13" height="14" viewBox="0 0 13 14" fill="none" xmlns="http://www.w3.org/2000/svg">
<path d="M5.20009 0.24035C5.28469 0.343149 5.33652 0.468956 5.34888 0.601516C5.36124 0.734075 5.33356 0.867295 5.26942 0.983963C4.76836 1.90392 4.50669 2.93512 4.50848 3.98268C4.50848 7.46761 7.34946 10.2895 10.8509 10.2895C11.3076 10.2895 11.7522 10.2419 12.1795 10.1509C12.3105 10.1225 12.4469 10.1333 12.5717 10.182C12.6966 10.2308 12.8043 10.3152 12.8815 10.4247C12.9629 10.5386 13.0045 10.6763 12.9996 10.8163C12.9948 10.9562 12.9438 11.0907 12.8546 11.1987C12.1749 12.0337 11.3173 12.7064 10.3446 13.1679C9.37179 13.6294 8.30828 13.868 7.23159 13.8663C3.23619 13.8663 0 10.6475 0 6.68153C0 3.69668 1.83216 1.1365 4.44088 0.0514132C4.57082 -0.00350677 4.71508 -0.0147789 4.85199 0.0192902C4.98889 0.0533594 5.11104 0.13093 5.20009 0.24035ZM4.21034 1.13563C3.20724 1.67369 2.36867 2.47348 1.78374 3.44999C1.19882 4.42649 0.889389 5.54324 0.888349 6.68153C0.888349 10.1656 3.7302 12.9875 7.23159 12.9875C8.07006 12.989 8.90049 12.8241 9.67481 12.5025C10.4491 12.1808 11.152 11.7088 11.7427 11.1137C11.4506 11.1501 11.1533 11.1683 10.8509 11.1683C6.85545 11.1683 3.62013 7.94948 3.62013 3.98355C3.62013 2.97213 3.82987 2.00925 4.21034 1.13563Z" fill="black"/>
</svg>
